<?xml version="1.0" encoding="UTF-8"?>
<svg version="1.1" xmlns="http://www.w3.org/2000/svg" width="2000" height="2000">
<path d="M0 0 C660 0 1320 0 2000 0 C2000 660 2000 1320 2000 2000 C1340 2000 680 2000 0 2000 C0 1340 0 680 0 0 Z " fill="#1E5AA8" transform="translate(0,0)"/>
<path d="M0 0 C2.82204301 1.05272032 5.11425712 2.37161884 7.63720703 4.02075195 C9.13477539 4.99044922 9.13477539 4.99044922 10.66259766 5.97973633 C11.72800781 6.6803418 12.79341797 7.38094727 13.89111328 8.1027832 C15.01490771 8.8334545 16.13926521 9.56326045 17.26416016 10.29223633 C19.5608765 11.78127839 21.85538712 13.27363004 24.1484375 14.76831055 C28.89514399 17.85167123 33.67297946 20.88490722 38.45361328 23.9152832 C47.55398826 29.69854314 56.63809227 35.50703832 65.71728516 41.32348633 C73.97609592 46.6136923 82.24720567 51.88419835 90.53173828 57.1340332 C106.95555025 67.54844156 123.29261368 78.0967014 139.45361328 88.9152832 C134.89861388 93.72001719 129.56357797 97.13364008 124.07861328 100.7902832 C123.04994141 101.50442383 122.02126953 102.21856445 120.96142578 102.9543457 C119.96111328 103.61950195 118.96080078 104.2846582 117.93017578 104.9699707 C117.02348145 105.58340332 116.11678711 106.19683594 115.18261719 106.82885742 C112.45361328 107.9152832 112.45361328 107.9152832 109.29589844 107.21313477 C106.01411866 105.71460004 103.13931352 103.86118729 100.20361328 101.7902832 C93.14074727 96.94312872 85.88850987 92.44181811 78.57861328 87.9777832 C70.48627316 83.0305048 62.44095537 78.03086829 54.49731445 72.84814453 C49.48733226 69.57954453 44.44978094 66.35804022 39.39111328 63.1652832 C38.62283203 62.680354 37.85455078 62.1954248 37.06298828 61.69580078 C32.40203426 58.75945668 27.7310567 55.83951511 23.05517578 52.92700195 C21.96986572 52.25056641 20.88455566 51.57413086 19.76635742 50.87719727 C17.63642819 49.55057117 15.50544307 48.22563851 13.37329102 46.90258789 C12.40077393 46.29705078 11.42825684 45.69151367 10.42626953 45.06762695 C9.56267822 44.53129639 8.69908691 43.99496582 7.80932617 43.44238281 C5.45361328 41.9152832 5.45361328 41.9152832 3.45532227 40.15576172 C1.50218351 38.68362168 1.50218351 38.68362168 -0.96801758 39.03149414 C-3.90785794 40.0391849 -6.19519508 41.35877909 -8.80029297 43.0559082 C-9.80938721 43.707771 -10.81848145 44.35963379 -11.8581543 45.03125 C-12.930896 45.73548096 -14.0036377 46.43971191 -15.10888672 47.1652832 C-16.23432616 47.89621002 -17.36022705 48.62642677 -18.48657227 49.35595703 C-20.76526974 50.83373556 -23.04097734 52.31594432 -25.31396484 53.80249023 C-28.18421061 55.6785557 -31.05903261 57.54720671 -33.93701172 59.41137695 C-38.00007441 62.04453424 -42.05794017 64.6855519 -46.11376953 67.32983398 C-50.31824253 70.07008365 -54.52607451 72.80516491 -58.73388672 75.5402832 C-59.56484863 76.08048096 -60.39581055 76.62067871 -61.25195312 77.17724609 C-66.57565486 80.63718091 -71.90294979 84.09150726 -77.23388672 87.5402832 C-77.92232666 87.98573486 -78.6107666 88.43118652 -79.32006836 88.89013672 C-82.82988594 91.16046604 -86.3413757 93.42816297 -89.85498047 95.69262695 C-90.57790283 96.15910645 -91.3008252 96.62558594 -92.0456543 97.10620117 C-93.37951748 97.96684702 -94.71390976 98.82667398 -96.04907227 99.68530273 C-97.35155699 100.52611993 -98.63262112 101.40084771 -99.89279175 102.30384827 C-102.54638672 103.9152832 -102.54638672 103.9152832 -106.21629333 105.1920929 C-111.05393279 107.13169472 -114.74093322 109.42394633 -117.54638672 113.9152832 C-120.32733175 124.06338378 -119.470713 135.19497573 -119.26922488 145.62244463 C-119.20328191 149.85583177 -119.22276092 154.08883611 -119.23292542 158.32260132 C-119.23929306 166.3273552 -119.16957148 174.32953903 -119.07205492 182.33362806 C-118.96471402 191.45093259 -118.94288263 200.56782663 -118.92799842 209.68567777 C-118.89549612 228.4299932 -118.75637484 247.17215769 -118.54638672 265.9152832 C-117.79075439 266.20250244 -117.03512207 266.48972168 -116.2565918 266.78564453 C-112.63006686 268.29721384 -109.49121639 270.43549717 -106.23388672 272.6027832 C-99.1672774 277.24080612 -92.03555886 281.76205468 -84.85888672 286.2277832 C-77.06227207 291.08397439 -69.28825956 295.97227665 -61.54638672 300.9152832 C-52.84182395 306.4712031 -44.0971714 311.96022755 -35.3359375 317.42626953 C-28.85504179 321.47032722 -22.38185603 325.52616418 -15.92138672 329.6027832 C-15.15802002 330.08376465 -14.39465332 330.56474609 -13.6081543 331.06030273 C-12.89425537 331.51131348 -12.18035645 331.96232422 -11.44482422 332.42700195 C-10.77547852 332.8451416 -10.10613281 333.26328125 -9.41650391 333.6940918 C-7.54638672 334.9152832 -7.54638672 334.9152832 -5.87158203 336.20288086 C-4.1943164 337.5383379 -4.1943164 337.5383379 -1.54638672 338.9152832 C2.29630588 337.77974236 5.38493661 335.78371367 8.68798828 333.5559082 C10.23715942 332.51660156 10.23715942 332.51660156 11.81762695 331.45629883 C12.36760345 331.0841626 12.91757996 330.71202637 13.48422241 330.32861328 C15.23852804 329.14166007 16.99655488 327.96041119 18.75561523 326.78051758 C21.30232786 325.07162834 23.84752454 323.36051549 26.39160156 321.64770508 C32.75914275 317.36233227 39.13853295 313.09471238 45.5213623 308.83215332 C47.57610423 307.45873613 49.62871435 306.08217914 51.68115234 304.70532227 C58.86701584 299.89623262 66.11779875 295.22189542 73.46717834 290.66671753 C80.77938149 286.11983778 87.92967077 281.33819478 95.07861328 276.5402832 C96.40007857 275.65594549 97.72169294 274.7718305 99.04345703 273.88793945 C101.45404064 272.27553131 103.86377413 270.66187101 106.27246094 269.04663086 C109.45361328 266.9152832 109.45361328 266.9152832 112.61503601 265.57804871 C115.94404545 262.45522672 115.90992535 261.74448584 116.13908386 257.35624695 C116.14070242 254.96388491 116.10904483 252.57136993 116.05200195 250.1796875 C116.04119609 248.1748203 116.03040139 246.16995301 116.0200268 244.16508353 C116.0033409 242.01139346 115.97205127 239.85833503 115.93697166 237.70487022 C115.86566948 233.21211174 115.84539112 228.72001832 115.83406067 224.22676086 C115.79379027 211.45115299 115.68012133 198.67656772 115.52612305 185.90185547 C115.44150496 178.84469322 115.39665792 171.78834871 115.3936289 164.73067027 C115.38925628 160.26676129 115.33527007 155.80710693 115.24396646 151.34417188 C115.18790026 147.90896184 115.20374007 144.47471287 115.20825195 141.0390625 C115.1488166 139.19271461 115.1488166 139.19271461 115.08818054 137.30906677 C115.13332677 133.84742765 115.28632637 131.17750177 116.45361328 127.9152832 C119.76408188 124.75932229 123.37318851 122.91071829 127.45361328 120.9152832 C129.12911163 119.83787302 130.79112272 118.7387727 132.43017578 117.60668945 C133.20232422 117.0878418 133.97447266 116.56899414 134.77001953 116.03442383 C136.34861037 114.97001021 137.92671289 113.90487211 139.50439453 112.83911133 C140.26365234 112.32928711 141.02291016 111.81946289 141.80517578 111.29418945 C142.48402832 110.8360083 143.16288086 110.37782715 143.86230469 109.90576172 C145.45361328 108.9152832 145.45361328 108.9152832 146.45361328 108.9152832 C146.85122244 131.41134713 147.15074774 153.90682973 147.3344202 176.40569782 C147.42198188 186.85320488 147.54128442 197.29852562 147.73608398 207.74462891 C147.90584909 216.85262616 148.01527415 225.95904014 148.05311769 235.06857556 C148.07523413 239.89043243 148.12695068 244.70776143 148.25102425 249.528162 C148.97743173 278.85983055 148.97743173 278.85983055 144.79856491 285.57473373 C140.94151481 289.49061913 136.68857112 291.57034959 131.49535179 293.21159172 C128.5400995 294.23012855 126.13284447 295.89124543 123.57861328 297.6652832 C121.87060856 298.74913457 120.16227873 299.83247376 118.45361328 300.9152832 C111.93534927 305.05422253 105.42949384 309.210328 98.95361328 313.4152832 C91.53459986 318.23263874 84.07301773 322.98142276 76.60595703 327.72387695 C71.03858854 331.26252424 65.48634169 334.82274087 59.95361328 338.4152832 C53.47772476 342.62024357 46.9713766 346.77554714 40.45361328 350.9152832 C33.7317988 355.18625467 27.01802128 359.46870601 20.32861328 363.7902832 C19.64250977 364.23073975 18.95640625 364.67119629 18.24951172 365.125 C15.08589811 367.1651844 11.9677496 369.24002353 8.91455078 371.44262695 C7.32513672 372.5737793 7.32513672 372.5737793 5.70361328 373.7277832 C4.80126953 374.39422852 3.89892578 375.06067383 2.96923828 375.74731445 C0.45361328 376.9152832 0.45361328 376.9152832 -1.89819336 376.18139648 C-4.57666656 374.90080627 -6.96266978 373.47054208 -9.43310547 371.82543945 C-10.82625977 370.90504883 -10.82625977 370.90504883 -12.24755859 369.96606445 C-13.23304688 369.30993164 -14.21853516 368.65379883 -15.23388672 367.9777832 C-22.27008198 363.33698232 -29.32282387 358.75921614 -36.54638672 354.4152832 C-44.42235338 349.66918823 -52.11001289 344.65986605 -59.79492188 339.61157227 C-67.14265768 334.79783352 -74.5759154 330.14214567 -82.06005859 325.54418945 C-88.05730625 321.8542729 -93.98344785 318.07036974 -99.87939453 314.22119141 C-106.09055917 310.17957057 -112.37822545 306.26514405 -118.67138672 302.3527832 C-143.65578126 286.80588866 -143.65578126 286.80588866 -146.54638672 283.9152832 C-146.69055343 281.50681755 -146.7698942 279.12507402 -146.80795288 276.71406555 C-146.83145984 275.5699137 -146.83145984 275.5699137 -146.85544169 274.40264767 C-146.90657614 271.8266083 -146.95005676 269.25050185 -146.99316406 266.67431641 C-147.02723633 264.83483612 -147.06146024 262.99535863 -147.0958252 261.15588379 C-147.39930315 244.31549885 -147.5754292 227.47334691 -147.71657372 210.63090229 C-147.81370649 199.30752805 -147.95022974 187.98743616 -148.18554688 176.66601562 C-148.39077944 166.79030072 -148.52137042 156.91689104 -148.56291544 147.03908032 C-148.58735482 141.81230212 -148.64777478 136.59178949 -148.79728317 131.36696815 C-149.66912979 99.62708648 -149.66912979 99.62708648 -144.50056648 91.82841301 C-139.69660587 87.07271254 -134.34869456 84.2876449 -128.06867313 81.9266758 C-124.41249266 80.46061158 -121.48767173 78.40104246 -118.27685547 76.13012695 C-116.09641518 74.70350582 -113.91542138 73.27773031 -111.73388672 71.8527832 C-109.88243539 70.64178248 -108.0312182 69.43042436 -106.18000793 68.21905518 C-104.90402122 67.38411677 -103.62796943 66.54927781 -102.35185242 65.71453857 C-93.79677905 60.1180243 -85.25165196 54.5063484 -76.70581055 48.89575195 C-75.35710334 48.01032464 -74.00838914 47.12490799 -72.65966797 46.23950195 C-71.99062943 45.80028412 -71.32159088 45.36106628 -70.63227844 44.90853882 C-66.58368416 42.25113212 -62.53350532 39.59616157 -58.48187256 36.94338989 C-56.46483094 35.62262579 -54.44820274 34.30123239 -52.43164062 32.97973633 C-49.77775717 31.24062106 -47.1222635 29.50400109 -44.46582031 27.76879883 C-37.61086549 23.28421824 -30.80193635 18.74191094 -24.04248047 14.11450195 C-21.97861018 12.70942524 -19.91408881 11.30530992 -17.84942627 9.90139771 C-15.90005575 8.56843424 -13.96234255 7.21963743 -12.02441406 5.87011719 C-10.84087951 5.06405558 -9.65682599 4.25875525 -8.47216797 3.4543457 C-6.931698 2.39014404 -6.931698 2.39014404 -5.36010742 1.30444336 C-2.54638672 -0.0847168 -2.54638672 -0.0847168 0 0 Z " fill="#FDFDFE" transform="translate(349.54638671875,763.084716796875)"/>
<path d="M0 0 C3.1657146 1.89845768 6.25551031 3.87508899 9.296875 5.96484375 C10.6412231 6.8747389 11.98630248 7.78355434 13.33203125 8.69140625 C14.02699707 9.16094727 14.72196289 9.63048828 15.43798828 10.11425781 C18.84406249 12.39654046 22.28800373 14.61906452 25.734375 16.83984375 C26.44190918 17.29665527 27.14944336 17.7534668 27.87841797 18.22412109 C29.34929335 19.17374004 30.82032456 20.12311766 32.29150391 21.07226562 C48.81630798 31.73342955 65.20310837 42.59149538 81.546875 53.52734375 C80.41766123 56.91498506 79.64998373 57.4797646 76.87109375 59.55859375 C75.75250977 60.40357422 75.75250977 60.40357422 74.61132812 61.265625 C73.43473633 62.13767578 73.43473633 62.13767578 72.234375 63.02734375 C71.46158203 63.60871094 70.68878906 64.19007813 69.89257812 64.7890625 C67.78214801 66.37506071 65.665297 67.95204716 63.546875 69.52734375 C62.8561792 70.09316162 62.1654834 70.65897949 61.45385742 71.24194336 C59.546875 72.52734375 59.546875 72.52734375 56.9609375 72.125 C52.01360203 69.80982814 47.51418777 66.91202557 42.921875 63.96484375 C40.78874301 62.61433215 38.65458326 61.26544289 36.51953125 59.91796875 C35.96285263 59.56598923 35.40617401 59.2140097 34.83262634 58.85136414 C28.66477634 54.95719966 22.4497322 51.14123157 16.21929932 47.34817505 C14.98585719 46.5965861 13.75338211 45.84340765 12.52191162 45.08859253 C10.78905509 44.02663411 9.05279153 42.97024129 7.31640625 41.9140625 C5.82524292 41.00466919 5.82524292 41.00466919 4.30395508 40.0769043 C0.57836115 37.91928004 0.57836115 37.91928004 -3.453125 36.52734375 C-6.20332732 37.56220593 -6.20332732 37.56220593 -8.8828125 39.48046875 C-9.91792969 40.15762939 -10.95304687 40.83479004 -12.01953125 41.5324707 C-13.11136719 42.27327881 -14.20320313 43.01408691 -15.328125 43.77734375 C-16.46376304 44.52922275 -17.60048888 45.27946125 -18.73828125 46.02807617 C-21.99024757 48.17429354 -25.22209458 50.34972783 -28.453125 52.52734375 C-29.91305152 53.49891669 -31.37382035 54.46922686 -32.8359375 55.4375 C-35.19169362 56.99979337 -37.54134977 58.5706013 -39.88671875 60.1484375 C-44.76604873 63.41934953 -49.70795567 66.59415066 -54.64648438 69.7746582 C-55.31615234 70.20609131 -55.98582031 70.63752441 -56.67578125 71.08203125 C-57.31531738 71.49291992 -57.95485352 71.90380859 -58.61376953 72.32714844 C-60.37068349 73.47354996 -62.0970239 74.65717217 -63.82421875 75.84765625 C-66.453125 77.52734375 -66.453125 77.52734375 -68.453125 77.52734375 C-68.85756801 88.21969688 -69.13424815 98.90733203 -69.25365353 109.60688114 C-69.31302195 114.57767381 -69.41417793 119.53984943 -69.61547852 124.50708008 C-71.34989614 145.4308723 -71.34989614 145.4308723 -65.28823853 164.7298584 C-59.99559383 169.79032669 -53.94893612 172.763259 -47.18307495 175.41830444 C-43.69166126 176.8366876 -40.94688702 178.63940936 -37.87890625 180.81640625 C-25.74525631 188.73281076 -13.60328122 196.63629623 -1.453125 204.52734375 C6.80265955 199.82089505 14.81105163 194.83404013 22.734375 189.58984375 C24.99869844 188.09957841 27.26490662 186.61219119 29.53125 185.125 C30.10483749 184.74832184 30.67842499 184.37164368 31.26939392 183.98355103 C37.65146046 179.79576028 44.06226246 175.65339735 50.484375 171.52734375 C51.55002686 170.83906494 52.61567871 170.15078613 53.71362305 169.44165039 C54.69886963 168.8099292 55.68411621 168.17820801 56.69921875 167.52734375 C57.56538818 166.97046875 58.43155762 166.41359375 59.32397461 165.83984375 C61.546875 164.52734375 61.546875 164.52734375 64.546875 163.52734375 C64.546875 155.93734375 64.546875 148.34734375 64.546875 140.52734375 C41.776875 140.52734375 19.006875 140.52734375 -4.453125 140.52734375 C-4.453125 130.29734375 -4.453125 120.06734375 -4.453125 109.52734375 C27.556875 109.52734375 59.566875 109.52734375 92.546875 109.52734375 C92.753125 121.09796875 92.959375 132.66859375 93.171875 144.58984375 C93.26291504 148.23281494 93.35395508 151.87578613 93.44775391 155.62915039 C93.49291992 160.10437012 93.49291992 160.10437012 93.50131226 162.20457458 C93.51659304 163.66041187 93.55161441 165.11612835 93.60263062 166.57115173 C94.01111389 178.84315643 94.01111389 178.84315643 90.40982056 182.9854126 C87.85847026 184.79463265 85.36294549 186.17725515 82.546875 187.52734375 C81.05891073 188.45991493 79.58017033 189.40761438 78.1171875 190.37890625 C76.636733 191.30549193 75.1549197 192.2299095 73.671875 193.15234375 C66.98587457 197.34245856 60.3410799 201.58829584 53.734375 205.90234375 C45.72014886 211.13239925 37.66163007 216.28893823 29.58056641 221.41503906 C23.05375664 225.55819502 16.55397284 229.74079143 10.0871582 233.97705078 C5.98536101 236.65010855 1.81895472 239.1349791 -2.453125 241.52734375 C-26.60075032 226.09557017 -26.60075032 226.09557017 -35.953125 220.02734375 C-42.93432609 215.49784817 -49.94164339 211.00980316 -56.953125 206.52734375 C-64.29521199 201.83251646 -71.63481864 197.13418019 -78.953125 192.40234375 C-79.9112207 191.78359375 -79.9112207 191.78359375 -80.88867188 191.15234375 C-82.07241634 190.38572829 -83.24965101 189.60890961 -84.41825104 188.81940079 C-86.45370127 187.47853892 -86.45370127 187.47853892 -88.74074554 186.38320541 C-92.27299321 184.46248844 -94.93319687 183.0005782 -96.31159973 179.09482574 C-96.66985949 176.03088247 -96.73789282 173.07423674 -96.71289062 169.98925781 C-96.73829926 168.83401611 -96.76370789 167.67877441 -96.78988647 166.48852539 C-96.86004109 162.67232974 -96.86306299 158.85976023 -96.859375 155.04296875 C-96.87529373 153.05715851 -96.89123279 151.0713471 -96.90997648 149.08556151 C-96.96761522 142.84153522 -96.97635849 136.59871158 -96.95605469 130.35449219 C-96.93615508 123.93253235 -97.00461211 117.51575224 -97.11599588 111.09484315 C-97.20839615 105.56564879 -97.24213547 100.03811127 -97.23048544 94.50816131 C-97.22430836 91.21187746 -97.24705071 87.92049531 -97.31416321 84.62476349 C-97.67614103 64.64712065 -97.67614103 64.64712065 -93.99203491 59.47685242 C-90.53754167 56.19162422 -86.69023639 54.16172641 -82.31439209 52.35201263 C-79.46051298 51.08754859 -76.99783029 49.31900285 -74.453125 47.52734375 C-11.79296875 5.75390625 -11.79296875 5.75390625 -10.09326172 4.64160156 C-8.45930631 3.53154314 -6.89454329 2.32183249 -5.33203125 1.11328125 C-2.453125 -0.47265625 -2.453125 -0.47265625 0 0 Z " fill="#FCFDFE" transform="translate(348.453125,835.47265625)"/>
<path d="M0 0 C6.9254916 6.50448907 13.27845387 14.53848662 16.3203125 23.6640625 C12.44691271 23.95566661 8.5763273 24.13238947 4.6953125 24.2890625 C3.60089844 24.37285156 2.50648438 24.45664062 1.37890625 24.54296875 C-1.90936445 24.64261332 -4.51998473 24.59829203 -7.6796875 23.6640625 C-10.47103949 20.67629743 -11.976209 17.34737597 -13.6796875 13.6640625 C-26.6096188 -2.69964176 -51.56365918 -10.80223928 -71.6796875 -13.3359375 C-102.24735765 -15.01040375 -128.97373028 -11.56861123 -152.8046875 8.9765625 C-166.67064934 21.89072665 -175.25301968 38.35919285 -179.6796875 56.6640625 C-179.84194824 57.31294434 -180.00420898 57.96182617 -180.17138672 58.63037109 C-187.33387013 88.64775515 -184.15215814 124.53780315 -168.65625 151.5703125 C-160.19747218 164.81013866 -150.35112772 174.7450862 -136.6796875 182.6640625 C-135.77734375 183.19 -134.875 183.7159375 -133.9453125 184.2578125 C-107.88473976 198.36795686 -72.70904978 199.96929124 -44.6796875 191.6640625 C-35.27471904 188.7879189 -26.67918073 184.86972736 -18.15625 179.984375 C-15.6796875 178.6640625 -15.6796875 178.6640625 -13.6796875 178.6640625 C-13.6796875 158.5340625 -13.6796875 138.4040625 -13.6796875 117.6640625 C-25.8896875 117.6640625 -38.0996875 117.6640625 -50.6796875 117.6640625 C-50.6796875 113.0440625 -50.6796875 108.4240625 -50.6796875 103.6640625 C-28.8996875 103.6640625 -7.1196875 103.6640625 15.3203125 103.6640625 C15.3203125 137.9840625 15.3203125 172.3040625 15.3203125 207.6640625 C5.7503125 207.6640625 -3.8196875 207.6640625 -13.6796875 207.6640625 C-13.6796875 203.3740625 -13.6796875 199.0840625 -13.6796875 194.6640625 C-14.70707031 195.12296875 -15.73445312 195.581875 -16.79296875 196.0546875 C-55.38005591 213.18997027 -101.24753986 218.73316787 -141.63867188 203.54614258 C-156.95127207 197.49563631 -169.7388665 188.93604015 -181.6796875 177.6640625 C-182.36933594 177.03886719 -183.05898438 176.41367188 -183.76953125 175.76953125 C-197.16118938 163.17341717 -207.0000071 144.24554545 -211.7421875 126.6015625 C-212.22365234 124.85166016 -212.22365234 124.85166016 -212.71484375 123.06640625 C-215.34926076 111.82604612 -216.00448611 100.69188601 -215.94042969 89.20361328 C-215.92963281 86.90240549 -215.94043554 84.60196677 -215.953125 82.30078125 C-215.96105159 74.54935775 -215.64156549 67.2040647 -213.6796875 59.6640625 C-213.5240332 58.95813965 -213.36837891 58.2522168 -213.20800781 57.52490234 C-209.51011719 40.79911825 -202.1749448 25.45284132 -190.6796875 12.6640625 C-190.16535156 12.00921875 -189.65101563 11.354375 -189.12109375 10.6796875 C-180.30321926 -0.31516847 -167.98032308 -7.82930407 -155.6796875 -14.3359375 C-154.60847656 -14.93148437 -154.60847656 -14.93148437 -153.515625 -15.5390625 C-142.08971862 -21.66529316 -129.30337936 -24.79595312 -116.6796875 -27.3359375 C-115.57109375 -27.56410156 -114.4625 -27.79226563 -113.3203125 -28.02734375 C-73.68347338 -34.68000571 -30.69646411 -26.75872528 0 0 Z " fill="#FCFCFD" transform="translate(808.6796875,862.3359375)"/>
<path d="M0 0 C5.48562745 4.11422059 10.27587908 7.99473139 15.0234375 12.81225586 C16.0007785 13.79156822 16.0007785 13.79156822 16.99786377 14.79066467 C19.12823699 16.9274734 21.25153028 19.07117653 23.375 21.21484375 C24.86846343 22.71458818 26.36245026 24.21381157 27.85693359 25.71253967 C31.77731688 29.64617422 35.69208503 33.58534493 39.60522461 37.52618408 C45.86589483 43.83009626 52.13333125 50.12726247 58.40411377 56.42111397 C60.58223584 58.60938042 62.75686765 60.80107035 64.93115234 62.9931488 C66.27950307 64.34833447 67.62796728 65.70340725 68.9765625 67.05834961 C69.86834198 67.96023514 69.86834198 67.96023514 70.77813721 68.88034058 C74.40275463 72.51456906 78.16700714 75.9180853 82.0486908 79.27509403 C85.07096457 81.94670449 87.90961453 84.78607109 90.74804688 87.65039062 C91.68149681 88.58603096 91.68149681 88.58603096 92.63380432 89.54057312 C93.97001378 90.88055593 95.30506811 92.22169146 96.63905334 93.56388855 C98.75658088 95.69431126 100.8773315 97.82147922 102.99890137 99.94787598 C108.2646852 105.22694934 113.52498392 110.51147737 118.78546143 115.7958374 C123.24155061 120.27173302 127.69973385 124.74552329 132.16065979 129.21659851 C134.23870342 131.30107178 136.31368535 133.38855921 138.3885498 135.47619629 C143.89225864 141.00102897 149.36183494 146.48666568 155.31170654 151.53656006 C158.30302997 154.12948735 161.0586454 156.95534728 163.8359375 159.7734375 C164.744077 160.68725693 164.744077 160.68725693 165.67056274 161.61953735 C167.57453359 163.53557209 169.47516933 165.45486062 171.375 167.375 C173.90078437 169.9273383 176.42984577 172.4763636 178.9609375 175.0234375 C179.53798431 175.60878265 180.11503113 176.19412781 180.70956421 176.79721069 C183.57428787 179.7661351 183.57428787 179.7661351 187 182 C187 123.26 187 64.52 187 4 C191.95 4 196.9 4 202 4 C202 82.21 202 160.42 202 241 C198.13225283 239.06612641 196.17480542 237.41270127 193.17480469 234.38598633 C192.70914597 233.91901337 192.24348724 233.45204041 191.76371765 232.97091675 C190.22845025 231.42917069 188.70028911 229.88056893 187.171875 228.33203125 C186.09867797 227.25255666 185.02495939 226.17360037 183.95074463 225.09513855 C181.12192973 222.25302657 178.29872526 219.40541203 175.47711182 216.55615234 C170.97702649 212.01296976 166.47035757 207.47634588 161.96018219 202.94318199 C160.39585331 201.36874526 158.83505318 199.79087469 157.27459717 198.21260071 C151.3839553 192.2672425 151.3839553 192.2672425 145.16894531 186.66674805 C139.44559292 181.76671793 134.22329707 176.33279219 128.91653442 170.99169922 C126.89982694 168.96208585 124.87988779 166.93573742 122.85913086 164.91015625 C117.84377055 159.88151298 112.83389992 154.84741209 107.82385254 149.81347656 C103.57914712 145.54895727 99.33234258 141.28654898 95.08279419 137.02685547 C93.10446386 135.04210014 91.12919871 133.05432977 89.15405273 131.06640625 C83.92240729 125.81366178 78.71012068 120.64196549 73.06048584 115.83563232 C68.59195707 111.85473826 64.42973818 107.53590398 60.21471024 103.28987503 C58.44328684 101.50554438 56.66863215 99.72448282 54.89315796 97.94418335 C51.13426348 94.17394682 47.37935745 90.39975374 43.625 86.625 C39.251178 82.22756125 34.87572811 77.83176752 30.49607468 73.44013596 C28.74684526 71.68442046 27.00064908 69.9257257 25.25454712 68.16690063 C24.18888807 67.09761143 23.12308971 66.02846104 22.05712891 64.95947266 C21.12639557 64.0235025 20.19566223 63.08753235 19.23672485 62.12319946 C17.1894389 59.97329161 17.1894389 59.97329161 15 59 C15 117.74 15 176.48 15 237 C10.05 237 5.1 237 0 237 C0 158.79 0 80.58 0 0 Z " fill="#FDFDFE" transform="translate(1556,833)"/>
<path d="M0 0 C49.83 0 99.66 0 151 0 C151 6.27 151 12.54 151 19 C111.4 19 71.8 19 31 19 C31 46.39 31 73.78 31 102 C64.99 102 98.98 102 134 102 C134 106.95 134 111.9 134 117 C99.68 117 65.36 117 30 117 C30 149.34 30 181.68 30 215 C69.93 215 109.86 215 151 215 C151 220.94 151 226.88 151 233 C101.17 233 51.34 233 0 233 C0 156.11 0 79.22 0 0 Z " fill="#FBFCFD" transform="translate(1355,837)"/>
<path d="M0 0 C9.9 0 19.8 0 30 0 C30.00808685 2.05079269 30.01617371 4.10158539 30.02450562 6.21452332 C30.10172578 25.56226288 30.18971348 44.90993228 30.28752708 64.25757885 C30.33755431 74.20384893 30.38399802 84.15011117 30.421875 94.09643555 C30.45491485 102.77012734 30.4948115 111.44375652 30.54279006 120.11737901 C30.56793632 124.70591167 30.58975202 129.29440343 30.60334396 133.88298607 C30.61627289 138.21105074 30.63844137 142.53897426 30.66738319 146.86696053 C30.67637506 148.4466282 30.68212931 150.02631855 30.68421364 151.60601044 C30.7140551 170.80496679 32.82049556 186.46846512 46.7578125 200.828125 C47.49773438 201.54484375 48.23765625 202.2615625 49 203 C49.95519531 203.95132812 49.95519531 203.95132812 50.9296875 204.921875 C67.0844978 220.07119918 85.28366958 221.51195123 106.34423828 221.08886719 C124.13386498 220.4935901 141.57038934 212.61660493 153.75 199.65625 C167.04240611 183.96382612 170.29207054 165.93221101 170.31884766 145.99365234 C170.32816124 144.39613343 170.33833201 142.79861933 170.34928894 141.20111084 C170.3764419 136.89193322 170.39169442 132.58278802 170.40471697 128.27354765 C170.42041228 123.75985237 170.4471819 119.24622268 170.4727478 114.73257446 C170.51942274 106.19768417 170.55622127 97.66278138 170.58942068 89.12782919 C170.62772207 79.40585525 170.67711109 69.68394736 170.72740483 59.96202922 C170.83055674 39.97473427 170.91947803 19.98739783 171 0 C175.95 0 180.9 0 186 0 C186.06962417 20.86309467 186.12307433 41.72616108 186.15543652 62.58934879 C186.17086621 72.27778659 186.1918807 81.9661506 186.22631836 91.65454102 C186.25634059 100.10480583 186.27560328 108.55501717 186.28226548 117.00533384 C186.28615614 121.47439317 186.29521724 125.94329961 186.31719017 130.41230965 C186.3377586 134.63037958 186.34379331 138.84823561 186.33932304 143.06635094 C186.34013924 144.60327955 186.34598247 146.14021634 186.35761642 147.67710114 C186.52765483 171.326993 180.3381463 194.22653991 164 212 C145.76959417 230.46542027 121.69590417 236.99565582 96.34985352 237.19067383 C69.83541593 237.16296804 45.59558797 232.86915951 25 215 C23.76443359 214.06414062 23.76443359 214.06414062 22.50390625 213.109375 C6.92926583 199.98877309 1.69407614 178.41433856 0 159 C-0.24755747 153.56403339 -0.25503933 148.14089747 -0.22705078 142.70141602 C-0.22648489 141.13272102 -0.22680668 139.5640255 -0.22793579 137.99533081 C-0.22850338 133.78762769 -0.21684664 129.58004148 -0.20278788 125.37236524 C-0.19018019 120.95617107 -0.18910218 116.53997343 -0.18673706 112.12376404 C-0.18055151 103.78377778 -0.16418081 95.44384473 -0.14403808 87.10388178 C-0.12158736 77.59949009 -0.11066271 68.09509571 -0.10064721 58.59068406 C-0.07981158 39.06041986 -0.04317247 19.53022848 0 0 Z " fill="#FCFCFD" transform="translate(871,837)"/>
<path d="M0 0 C11.88 0 23.76 0 36 0 C36.99515625 2.4028125 37.9903125 4.805625 39.015625 7.28125 C49.46176894 32.4968252 59.94850589 57.69533298 70.45166016 82.88720703 C72.97246355 88.93359273 75.49223858 94.98040657 78.01171875 101.02734375 C78.63058205 102.51254013 78.63058205 102.51254013 79.26194763 104.02774048 C81.32858433 108.98759786 83.39466408 113.94768603 85.4597168 118.90820312 C89.36742282 128.29333238 93.28078497 137.67599864 97.21173096 147.05142212 C99.07070926 151.48600716 100.92682401 155.92178813 102.78271484 160.35766602 C103.66930217 162.47447792 104.55729643 164.59070117 105.44677734 166.70629883 C106.67900901 169.63736034 107.90640352 172.57040463 109.1328125 175.50390625 C109.67822189 176.79585655 109.67822189 176.79585655 110.23464966 178.11390686 C112.14326789 182.69364816 113.74712723 187.19785886 115 192 C115.66 192 116.32 192 117 192 C117.08958984 191.36666748 117.17917969 190.73333496 117.27148438 190.08081055 C118.29152323 185.76718108 119.9763427 181.80192397 121.65625 177.70703125 C122.03007813 176.78572922 122.40390625 175.86442719 122.7890625 174.91520691 C124.02198014 171.87930223 125.26101828 168.84593432 126.5 165.8125 C127.36698234 163.68051981 128.23351289 161.54835584 129.09960938 159.41601562 C130.87426966 155.0481607 132.65109441 150.68119632 134.4296875 146.31494141 C137.79080039 138.06122566 141.1327081 129.79976922 144.47357178 121.5378418 C145.86103301 118.10734658 147.24972511 114.67735017 148.63839722 111.24734497 C153.15659881 100.08719266 157.67015838 88.92516547 162.18240356 77.76260376 C163.36679479 74.83279707 164.55141707 71.90308389 165.73608398 68.97338867 C169.49725319 59.67110454 173.25589629 50.36781629 177.00762939 41.0617218 C178.76761702 36.69652133 180.52880599 32.33180603 182.2901001 27.96713257 C183.1327867 25.87787856 183.97487654 23.78838375 184.81634521 21.69863892 C185.98155153 18.80500334 187.14876293 15.91218413 188.31640625 13.01953125 C188.66132614 12.16141846 189.00624603 11.30330566 189.36161804 10.41918945 C189.68129044 9.62834961 190.00096283 8.83750977 190.33032227 8.02270508 C190.60610611 7.3383992 190.88188995 6.65409332 191.16603088 5.9490509 C192.03011365 3.92962204 193.01768315 1.9646337 194 0 C199.61 0 205.22 0 211 0 C208.6654291 8.6465589 205.34765294 16.76254643 201.9105835 25.01345825 C200.0969876 29.36808723 198.30001064 33.72958616 196.5 38.08984375 C196.12567841 38.99528427 195.75135681 39.90072479 195.36569214 40.83360291 C191.48654557 50.22352771 187.67763973 59.64139512 183.875 69.0625 C177.82666145 84.03672749 171.74592203 98.99747951 165.64654541 113.95098877 C157.73393788 133.35090004 149.84550229 152.76034563 142 172.1875 C141.56437744 173.26599213 141.12875488 174.34448425 140.67993164 175.45565796 C136.30264048 186.29564592 131.93685764 197.14002125 127.609375 208 C127.27442017 208.84009109 126.93946533 209.68018219 126.59436035 210.54573059 C125.05769699 214.4009402 123.52399932 218.25727776 121.99609375 222.1159668 C121.47141687 223.43540905 120.94668139 224.754828 120.421875 226.07421875 C119.97424805 227.20432373 119.52662109 228.33442871 119.06542969 229.4987793 C118 232 118 232 117 233 C115.5112814 233.08669432 114.018555 233.10703494 112.52734375 233.09765625 C111.62822266 233.09443359 110.72910156 233.09121094 109.80273438 233.08789062 C108.85720703 233.07951172 107.91167969 233.07113281 106.9375 233.0625 C105.5134082 233.05573242 105.5134082 233.05573242 104.06054688 233.04882812 C101.70696935 233.0370011 99.35351523 233.02052025 97 233 C92.80924389 224.12556959 88.91350598 215.16549363 85.16781616 206.09689331 C83.87757482 202.97341529 82.58134175 199.85243313 81.28556824 196.73124695 C80.59275675 195.06234501 79.90022532 193.39332679 79.20796204 191.72419739 C75.22337102 182.11932654 71.20552134 172.52842167 67.1875 162.9375 C66.42672795 161.1209435 65.66598593 159.30437441 64.90527344 157.48779297 C63.36976027 153.82107127 61.83410164 150.15441054 60.29833984 146.48779297 C56.90498923 138.38586048 53.51354669 130.2831293 50.12197876 122.18045044 C48.24806576 117.70360017 46.37402642 113.22680279 44.5 108.75 C43.7499994 106.95833359 42.9999994 105.16666692 42.25 103.375 C41.87875 102.488125 41.5075 101.60125 41.125 100.6875 C37.75 92.625 37.75 92.625 36.62521362 89.93800354 C35.87450799 88.14465571 35.1237959 86.35131058 34.37307739 84.55796814 C32.50882098 80.10454528 30.64467328 75.65107697 28.78076172 71.19750977 C25.27785484 62.82810803 21.77382975 54.45917928 18.26617432 46.09176636 C16.61584444 42.15477264 14.96610317 38.21753241 13.31640625 34.28027344 C12.53252037 32.40987033 11.74834855 30.53958702 10.96386719 28.66943359 C4.19756776 12.53869293 4.19756776 12.53869293 1.4921875 5.91015625 C1.19425293 5.18062744 0.89631836 4.45109863 0.58935547 3.69946289 C0 2 0 2 0 0 Z " fill="#FCFDFE" transform="translate(1094,837)"/>
<path d="M0 0 C40.00562652 0 40.00562652 0 47.59375 7.35546875 C52.45346464 13.03863504 52.48428289 18.74197003 52.27734375 25.9765625 C51.77354063 31.46872614 49.75394871 34.47954903 45.875 38.1875 C39.20093418 43.52955688 32.32692744 44.39652035 24 44 C24.94746094 45.20269531 24.94746094 45.20269531 25.9140625 46.4296875 C32.04638979 54.2210356 38.14845158 62.03530336 44.22705078 69.86865234 C44.79020996 70.59391113 45.35336914 71.31916992 45.93359375 72.06640625 C46.46194824 72.74848145 46.99030273 73.43055664 47.53466797 74.13330078 C48.7994825 75.74455902 50.10152178 77.32646788 51.41015625 78.90234375 C53 81 53 81 53 83 C44.63145204 84.17859495 44.63145204 84.17859495 41.08789062 81.61865234 C39.30697252 79.56166002 37.77264335 77.44248657 36.25 75.1875 C35.66927734 74.39029541 35.08855469 73.59309082 34.49023438 72.77172852 C32.62666111 70.20331021 30.81060756 67.60597477 29 65 C27.11897644 62.32084903 25.23075666 59.6479122 23.32324219 56.98754883 C22.12797047 55.31580096 20.95073637 53.63097537 19.79394531 51.93237305 C19.25350586 51.16965088 18.71306641 50.40692871 18.15625 49.62109375 C17.69025391 48.9448999 17.22425781 48.26870605 16.74414062 47.57202148 C14.63296084 45.38559629 14.63296084 45.38559629 9 45 C9 57.54 9 70.08 9 83 C6.03 83 3.06 83 0 83 C0 55.61 0 28.22 0 0 Z " fill="#F6F8FB" transform="translate(1678,1130)"/>
<path d="M0 0 C3.68101111 1.2270037 4.12349718 2.66950545 5.80323792 6.01446533 C6.1466069 6.7238324 6.48997589 7.43319946 6.84375 8.1640625 C7.39258095 9.26823517 7.39258095 9.26823517 7.95249939 10.39471436 C9.14483537 12.80009026 10.3225715 15.21229668 11.5 17.625 C12.31315331 19.27330962 13.12703895 20.92125817 13.94165039 22.56884766 C19.7328767 34.30668788 25.41870333 46.09495393 31.01123047 57.92871094 C32.30463097 60.63814546 33.64340964 63.3217155 35 66 C37.31819438 63.08777129 39.02208899 60.16837615 40.64794922 56.82348633 C41.40421097 55.27586357 41.40421097 55.27586357 42.17575073 53.69697571 C42.71329987 52.58654404 43.250849 51.47611237 43.8046875 50.33203125 C44.66208923 48.57535433 45.51949357 46.81867868 46.37704659 45.06207561 C47.57629637 42.60300245 48.77175974 40.14209709 49.96716309 37.68115234 C52.04921274 33.39555115 54.13459322 29.11157771 56.22390747 24.82951355 C57.3339525 22.55350916 58.44156535 20.2763164 59.5463562 17.99775696 C62.52220013 11.89128577 65.62050902 5.89340256 69 0 C69.66 0 70.32 0 71 0 C72.44011069 9.78741698 73.87480791 19.57561086 75.30266571 29.36482334 C75.96589833 33.91068165 76.63096821 38.45625507 77.30029297 43.0012207 C77.9465747 47.39019066 78.58795691 51.77985155 79.22599792 56.17002678 C79.46985267 57.84194212 79.71544952 59.51360436 79.96284485 61.18499947 C80.30997207 63.53226614 80.65080384 65.88036947 80.99023438 68.22875977 C81.0930925 68.91424896 81.19595062 69.59973816 81.30192566 70.30599976 C81.90974858 74.5686965 82.09008995 78.69709395 82 83 C79.36 83 76.72 83 74 83 C72.08079743 74.47205401 71.03189792 65.85685334 70 57.1875 C69.61467722 40.84603555 69.61467722 40.84603555 65 27 C55.76 45.48 46.52 63.96 37 83 C36.01 83 35.02 83 34 83 C33.65143448 82.30064835 33.30286896 81.60129669 32.94374084 80.88075256 C29.66434311 74.30195038 26.38303997 67.72410384 23.09957218 61.14733219 C21.41143082 57.76582273 19.72403833 54.38394384 18.03833008 51.0012207 C16.41262045 47.73896521 14.78497935 44.47768029 13.15597343 41.21706963 C12.5336814 39.97063265 11.91209554 38.72384286 11.2912159 37.47670174 C10.42393961 35.73492904 9.55395652 33.99450491 8.68383789 32.25415039 C8.18864151 31.26153702 7.69344513 30.26892365 7.1832428 29.24623108 C6.18935171 27.09066471 6.18935171 27.09066471 5 26 C4.74307373 27.84392334 4.74307373 27.84392334 4.48095703 29.72509766 C3.83634131 34.35094508 3.19140832 38.97674822 2.54638672 43.60253906 C2.26895842 45.59243613 1.99161251 47.58234469 1.71435547 49.57226562 C0.16141794 60.71753569 -1.39654796 71.86186298 -3 83 C-5.64 83 -8.28 83 -11 83 C-10.39222042 73.10781997 -8.97572509 63.36382286 -7.53109741 53.56817627 C-5.44837513 39.43533966 -3.43828561 25.30695094 -1.85009766 11.10864258 C-1.69806885 9.75935669 -1.69806885 9.75935669 -1.54296875 8.3828125 C-1.46071045 7.62371582 -1.37845215 6.86461914 -1.29370117 6.08251953 C-1.00044036 4.00312238 -0.54707013 2.02607953 0 0 Z " fill="#F7F9FB" transform="translate(1143,1130)"/>
<path d="M0 0 C1.82641602 0.17260742 1.82641602 0.17260742 4 1 C5.44116211 3.23950195 5.44116211 3.23950195 6.77734375 6.23828125 C7.28410645 7.35428711 7.79086914 8.47029297 8.31298828 9.62011719 C8.85462859 10.85085144 9.39612865 12.08164742 9.9375 13.3125 C10.50871508 14.58174835 11.08149399 15.85029396 11.65576172 17.11816406 C12.85028394 19.75856261 14.03796415 22.40188517 15.22119141 25.04736328 C17.95616449 31.14564682 20.79736712 37.19424493 23.625 43.25 C25.22252934 46.69096289 26.81765376 50.13303341 28.41259766 53.57519531 C29.48677596 55.89272426 30.56200116 58.20976821 31.63818359 60.52636719 C33.20014518 63.89080896 34.75700696 67.25756365 36.3125 70.625 C36.78703613 71.6449707 37.26157227 72.66494141 37.75048828 73.71582031 C38.17958496 74.64749023 38.60868164 75.57916016 39.05078125 76.5390625 C39.42887939 77.35584473 39.80697754 78.17262695 40.1965332 79.01416016 C41 81 41 81 41 83 C38.03 83 35.06 83 32 83 C28.04 74.42 24.08 65.84 20 57 C1.685 56.505 1.685 56.505 -17 56 C-17.66 57.98 -18.32 59.96 -19 62 C-19.76378726 63.74026241 -20.55834775 65.46733763 -21.3828125 67.1796875 C-21.82753906 68.1078125 -22.27226563 69.0359375 -22.73046875 69.9921875 C-23.19066406 70.94351562 -23.65085937 71.89484375 -24.125 72.875 C-24.82689453 74.33679687 -24.82689453 74.33679687 -25.54296875 75.828125 C-26.69214845 78.22029499 -27.84457243 80.61084316 -29 83 C-31.97 83 -34.94 83 -38 83 C-33.62997744 72.86803427 -29.10361346 62.82768559 -24.37481689 52.85824585 C-22.63540172 49.19045944 -20.90419404 45.51879808 -19.171875 41.84765625 C-18.82303253 41.1088472 -18.47419006 40.37003815 -18.11477661 39.60884094 C-14.87881301 32.7521277 -11.66683791 25.884399 -8.47149658 19.00866699 C-7.64395865 17.22828795 -6.81491677 15.4486082 -5.98583984 13.66894531 C-5.48777832 12.59612305 -4.9897168 11.52330078 -4.4765625 10.41796875 C-4.04424316 9.48750732 -3.61192383 8.5570459 -3.16650391 7.59838867 C-2.04025939 5.08967782 -1.00140429 2.56078342 0 0 Z " fill="#F7F9FC" transform="translate(1270,1130)"/>
<path d="M0 0 C4.02039786 2.01019893 5.74556572 3.63552223 8.6875 6.9375 C9.12320312 7.42476562 9.55890625 7.91203125 10.0078125 8.4140625 C13.70880387 12.58706437 17.21667635 16.90940167 20.71875 21.25 C23.86194258 25.03905407 27.20158595 28.63269352 30.53515625 32.25390625 C32.92707297 34.91875166 35.19254884 37.64831825 37.4375 40.4375 C41.20907428 45.11667237 45.17743368 49.55657214 49.28295898 53.94116211 C51.71389296 56.546465 53.85197517 59.13596689 56 62 C56.33 41.54 56.66 21.08 57 0 C59.64 0 62.28 0 65 0 C65 27.39 65 54.78 65 83 C60.97960214 80.98980107 59.25443428 79.36447777 56.3125 76.0625 C55.87534668 75.57378418 55.43819336 75.08506836 54.98779297 74.58154297 C52.10777101 71.33514308 49.3489711 68.00391497 46.625 64.625 C42.75845816 59.8293951 38.65148017 55.33121333 34.4440918 50.83862305 C30.53223938 46.63788005 26.89886632 42.2642079 23.3125 37.78125 C20.17521084 34.00802385 16.84100967 30.43116108 13.45288086 26.88256836 C10 23.2119884 10 23.2119884 10 21 C9.34 21 8.68 21 8 21 C8 41.46 8 61.92 8 83 C5.36 83 2.72 83 0 83 C0 55.61 0 28.22 0 0 Z " fill="#FCFCFD" transform="translate(1416,1130)"/>
<path d="M0 0 C3.78180755 2.16642469 5.85845366 4.33585601 7.6875 8.375 C8.35950853 12.74691759 8.17462241 16.23026234 6.4375 20.3125 C4.63593031 22.43577857 3.27234592 23.3945412 0.6875 24.375 C0.6875 25.035 0.6875 25.695 0.6875 26.375 C1.80125 26.684375 1.80125 26.684375 2.9375 27 C6.98243773 29.02246887 8.8241313 32.14463087 10.4375 36.3125 C11.00383216 40.98474036 11.28359888 44.22865599 9.0625 48.5 C5.79472355 52.45572938 2.66031212 55.71739596 -2.3125 57.375 C-16.04162424 58.32815682 -16.04162424 58.32815682 -21.3125 54.375 C-26.75357928 48.78485006 -27.66729063 45.03379795 -27.59375 37.3671875 C-27.21821585 33.37192137 -26.10337014 31.24129906 -23.3125 28.375 C-20.5625 27 -20.5625 27 -18.3125 26.375 C-18.3125 25.715 -18.3125 25.055 -18.3125 24.375 C-18.910625 24.148125 -19.50875 23.92125 -20.125 23.6875 C-23.04877001 21.93323799 -23.95097463 20.50650836 -25.3125 17.375 C-25.84616173 12.57204446 -25.854052 10.41798903 -23.625 6.125 C-17.23832809 -1.46996119 -9.31728561 -4.2049922 0 0 Z " fill="#F3F6FA" transform="translate(415.3125,1163.625)"/>
<path d="M0 0 C15.84 0 31.68 0 48 0 C48 2.64 48 5.28 48 8 C35.13 8 22.26 8 9 8 C9 16.58 9 25.16 9 34 C21.87 34 34.74 34 48 34 C48 36.64 48 39.28 48 42 C35.13 42 22.26 42 9 42 C9 52.89 9 63.78 9 75 C21.87 75 34.74 75 48 75 C48 77.64 48 80.28 48 83 C32.16 83 16.32 83 0 83 C0 55.61 0 28.22 0 0 Z " fill="#F7F9FC" transform="translate(1616,1130)"/>
<path d="M0 0 C15.84 0 31.68 0 48 0 C48 2.64 48 5.28 48 8 C35.13 8 22.26 8 9 8 C9 16.58 9 25.16 9 34 C21.87 34 34.74 34 48 34 C48 36.64 48 39.28 48 42 C35.13 42 22.26 42 9 42 C9 52.89 9 63.78 9 75 C21.87 75 34.74 75 48 75 C48 77.64 48 80.28 48 83 C32.16 83 16.32 83 0 83 C0 55.61 0 28.22 0 0 Z " fill="#F7F9FC" transform="translate(1501,1130)"/>
<path d="M0 0 C3.3378229 2.32196375 5.71923347 4.63887038 8 8 C6.84826645 10.46800047 5.95216435 12.04783565 4 14 C2 13.875 2 13.875 0 13 C-0.6837045 11.67532254 -1.34964186 10.34136367 -2 9 C-7.07104009 5.89194317 -12.18200622 5.31732823 -18 6 C-21.22629955 7.14756048 -21.22629955 7.14756048 -23 10 C-24.05012459 14.27604689 -24.00748054 18.10463194 -21.9140625 22.04296875 C-17.30015084 27.72253006 -11.07872446 31.96021863 -5.31640625 36.40234375 C1.89910113 42.00319213 8.811042 48.31090298 10.48046875 57.703125 C10.83532674 64.57010656 9.17034 69.55660885 5 75 C1.33368926 79.0289129 -2.9462969 81.18829511 -8 83 C-8.99 83 -9.98 83 -11 83 C-11 84.32 -11 85.64 -11 87 C-10.236875 87.103125 -9.47375 87.20625 -8.6875 87.3125 C-5.71839688 88.07203801 -4.5780299 88.36995016 -3 91 C-3.06822675 94.82069813 -3.11432756 97.11432756 -5.875 99.875 C-9.93858174 102.02630798 -13.15221763 102.10740379 -17.6875 102.0625 C-18.86699219 102.05347656 -20.04648437 102.04445313 -21.26171875 102.03515625 C-22.61716797 102.01775391 -22.61716797 102.01775391 -24 102 C-24.495 99.525 -24.495 99.525 -25 97 C-24.24074219 97.01160156 -23.48148438 97.02320313 -22.69921875 97.03515625 C-21.70535156 97.04417969 -20.71148438 97.05320312 -19.6875 97.0625 C-18.20830078 97.07990234 -18.20830078 97.07990234 -16.69921875 97.09765625 C-13.90036151 97.12329862 -13.90036151 97.12329862 -11 96 C-11 95.01 -11 94.02 -11 93 C-12.98 92.67 -14.96 92.34 -17 92 C-17.125 85.25 -17.125 85.25 -16 83 C-16.969375 82.95875 -17.93875 82.9175 -18.9375 82.875 C-25.09106952 81.95321023 -29.98036047 78.38536903 -33.94140625 73.70703125 C-35.49272996 71.50062421 -36.91723178 69.47153616 -38 67 C-37 64 -37 64 -33.9375 62.3125 C-32.968125 61.879375 -31.99875 61.44625 -31 61 C-30.62488281 61.53109375 -30.24976563 62.0621875 -29.86328125 62.609375 C-24.11393991 70.60295977 -24.11393991 70.60295977 -15.1875 74.0625 C-10.37144766 74.37925083 -7.53385617 73.19202129 -3.59375 70.51953125 C-0.55605239 67.62329505 -0.02785574 65.28784269 0.375 61.125 C0.14091834 54.076541 -4.94713425 49.73803846 -9.72265625 45.078125 C-14.27727361 40.921939 -19.18032721 37.18591777 -24.05078125 33.41015625 C-29.14233386 29.29984504 -32.57184224 25.53119805 -33.37890625 18.875 C-33.60517762 12.45181286 -33.5475828 7.91630573 -29 3 C-28.195625 2.0925 -27.39125 1.185 -26.5625 0.25 C-18.61428307 -6.72892218 -8.59785535 -4.9714332 0 0 Z " fill="#F6F8FB" transform="translate(655,1132)"/>
<path d="M0 0 C15.51 0 31.02 0 47 0 C47 2.64 47 5.28 47 8 C34.13 8 21.26 8 8 8 C8 16.58 8 25.16 8 34 C20.87 34 33.74 34 47 34 C47 36.64 47 39.28 47 42 C34.13 42 21.26 42 8 42 C8 52.89 8 63.78 8 75 C20.87 75 33.74 75 47 75 C47 77.64 47 80.28 47 83 C31.49 83 15.98 83 0 83 C0 55.61 0 28.22 0 0 Z " fill="#FDFEFE" transform="translate(791,1130)"/>
<path d="M0 0 C2.64 0 5.28 0 8 0 C8.33 10.89 8.66 21.78 9 33 C11.495625 30.525 13.99125 28.05 16.5625 25.5 C17.33408447 24.73751953 18.10566895 23.97503906 18.90063477 23.18945312 C24.33121155 17.78033013 29.38391745 12.12686268 34.30078125 6.25 C39.64322069 0.27476676 39.64322069 0.27476676 43.796875 -0.56640625 C46.265182 -0.56291994 48.56856277 -0.41116162 51 0 C48.35152505 4.19976282 45.60946545 7.62083268 42.04296875 11.1171875 C41.57691727 11.57803741 41.11086578 12.03888733 40.63069153 12.51370239 C39.15437909 13.97238847 37.67152161 15.42416118 36.1875 16.875 C25.3130665 27.26146964 25.3130665 27.26146964 16 39 C16.49628906 39.4846875 16.99257812 39.969375 17.50390625 40.46875 C21.51809332 44.42961769 25.34915934 48.46912589 29.02734375 52.7421875 C31.43202207 55.49447278 33.90021787 58.18598046 36.375 60.875 C37.32165804 61.90621011 38.26827271 62.93746003 39.21484375 63.96875 C40.99615538 65.90863354 42.78037189 67.84569983 44.56640625 69.78125 C48.4288822 74.00642963 52.03196524 78.0962904 55 83 C50.65763984 83.59719202 46.68334492 84.08938293 42.88134766 81.62890625 C40.88290104 79.67839761 39.08996712 77.65357992 37.3125 75.5 C36.70083984 74.80390625 36.08917969 74.1078125 35.45898438 73.390625 C33.61335461 71.28133384 31.80636278 69.14294299 30 67 C25.3751275 61.64855767 20.65060403 56.40354152 15.83203125 51.2265625 C13.37306989 48.56559015 11.1818936 45.90919147 9 43 C8.67 56.2 8.34 69.4 8 83 C5.36 83 2.72 83 0 83 C0 55.61 0 28.22 0 0 Z " fill="#FBFCFD" transform="translate(1322,1130)"/>
<path d="M0 0 C5.95931668 2.51719664 9.76923293 7.46214531 13.73828125 12.40234375 C11.42578125 14.90234375 11.42578125 14.90234375 8.73828125 17.40234375 C7.74828125 17.40234375 6.75828125 17.40234375 5.73828125 17.40234375 C4.49450548 15.93532618 3.25309952 14.46219446 2.1171875 12.91015625 C-0.15686336 10.42351707 -2.35961715 9.54169278 -5.6640625 9.03125 C-10.10824551 8.91483843 -12.56245766 8.95481665 -16.38671875 11.40234375 C-18.74288023 15.17220212 -19.12686951 18.12748119 -18.26171875 22.40234375 C-14.89367005 29.9403575 -6.92698647 34.61799875 -0.53125 39.4765625 C5.88539989 44.41767414 11.61743251 49.75485855 14.73828125 57.40234375 C15.63784696 64.72439022 15.34842951 71.4309818 10.73828125 77.40234375 C6.03594561 82.35992099 1.65637839 85.97090156 -5.3125 86.73828125 C-13.76398191 86.8394966 -19.25112579 86.23421153 -25.453125 80.30859375 C-28.97391644 76.52956895 -31.54454096 73.31971652 -33.26171875 68.40234375 C-28.63671875 65.40234375 -28.63671875 65.40234375 -25.26171875 65.40234375 C-23.83203125 67.046875 -23.83203125 67.046875 -22.38671875 69.21484375 C-18.87534159 74.08601893 -16.33403263 75.93440191 -10.38671875 77.27734375 C-6.0294624 77.67196319 -3.0735109 76.60145461 0.73828125 74.40234375 C3.39225777 72.15667131 4.50969873 70.55519472 5.1875 67.13671875 C5.57805651 61.47798884 4.57778584 57.8433242 0.90625 53.53515625 C-3.39848017 49.30023251 -8.04489115 45.47714814 -12.72119141 41.66259766 C-27.45646542 29.60816271 -27.45646542 29.60816271 -28.5546875 21.14453125 C-28.86598702 15.64210188 -28.19667616 11.72566511 -24.92578125 7.23046875 C-17.8880204 -0.50115584 -10.18871112 -2.69235371 0 0 Z " fill="#F7F9FB" transform="translate(939.26171875,1128.59765625)"/>
<path d="M0 0 C2.97 0 5.94 0 9 0 C18.42912658 20.82565362 27.28263328 41.86845734 36 63 C38.81411031 56.60487402 41.62633307 50.20892034 44.4375 43.8125 C44.84950653 42.875271 45.26151306 41.93804199 45.68600464 40.97241211 C50.72800014 29.49995421 55.76382957 18.02653496 60.62475586 6.47583008 C62.89832239 1.10167761 62.89832239 1.10167761 64 0 C67.00003445 -0.14177857 69.99757235 -0.04228771 73 0 C68.93344384 11.05998075 64.21124215 21.79461215 59.4375 32.5625 C57.82871098 36.19832958 56.22205627 39.8350946 54.6171875 43.47265625 C54.02379326 44.81724411 54.02379326 44.81724411 53.41841125 46.18899536 C50.98026067 51.72883605 48.59324708 57.28722219 46.2578125 62.87109375 C45.97919876 63.53452286 45.70058502 64.19795197 45.41352844 64.88148499 C44.13473287 67.92821992 42.8668968 70.97865138 41.61694336 74.03735352 C41.17745361 75.08721436 40.73796387 76.1370752 40.28515625 77.21875 C39.91269775 78.12560547 39.54023926 79.03246094 39.15649414 79.96679688 C38 82 38 82 35 83 C27.34539374 65.91045569 19.83444875 48.76783208 12.50537109 31.53564453 C11.20735387 28.48700921 9.90489359 25.4403494 8.60011292 22.39460754 C7.31365033 19.38939067 6.03216968 16.38205039 4.75 13.375 C4.27167725 12.25988037 3.79335449 11.14476074 3.30053711 9.99584961 C2.86620361 8.97370361 2.43187012 7.95155762 1.984375 6.8984375 C1.40768066 5.54758057 1.40768066 5.54758057 0.81933594 4.16943359 C0 2 0 2 0 0 Z " fill="#F7F9FC" transform="translate(704,1130)"/>
<path d="M0 0 C13.86 0 27.72 0 42 0 C42 2.64 42 5.28 42 8 C30.78 8 19.56 8 8 8 C8 16.58 8 25.16 8 34 C19.22 34 30.44 34 42 34 C42 36.64 42 39.28 42 42 C30.78 42 19.56 42 8 42 C8 55.53 8 69.06 8 83 C5.36 83 2.72 83 0 83 C0 55.61 0 28.22 0 0 Z " fill="#FDFDFE" transform="translate(1047,1130)"/>
<path d="M0 0 C5.46287362 2.15541952 9.63430607 5.57861808 12 11 C14.04061274 21.86667761 9.39852669 30.38162862 3.5390625 39.19824219 C0.97789221 42.93965327 -1.65182515 46.62543344 -4.328125 50.28515625 C-6.38672861 53.1047029 -8.27098419 55.96237976 -10 59 C-11.9375 58.6875 -11.9375 58.6875 -14 58 C-15 55 -15 55 -13.92016602 52.82348633 C-13.09536743 51.59021606 -13.09536743 51.59021606 -12.25390625 50.33203125 C-11.36928711 48.99301758 -11.36928711 48.99301758 -10.46679688 47.62695312 C-9.83837891 46.69818359 -9.20996094 45.76941406 -8.5625 44.8125 C-7.93794922 43.87212891 -7.31339844 42.93175781 -6.66992188 41.96289062 C-5.12236079 39.63564228 -3.56549187 37.31520855 -2 35 C-3.84851563 35.06380859 -3.84851563 35.06380859 -5.734375 35.12890625 C-10.98793154 35.12080605 -14.06361054 33.42256872 -18 30 C-21.49451052 26.2208243 -22.27963005 22.51289541 -22.5 17.4375 C-22.26577563 11.73023283 -20.67480741 8.5042202 -16.46875 4.56640625 C-11.03868069 -0.13166842 -7.0625734 -0.90863517 0 0 Z " fill="#F2F6FA" transform="translate(324,1162)"/>
<path d="M0 0 C5.90673381 2.65897985 9.59954678 7.09888582 12 13 C12.95808785 18.05505401 12.42435673 21.86573127 9.8125 26.3125 C6.88762197 30.47195828 3.88828517 33.37057161 -1 35 C-6.64943956 35.57815902 -12.20001615 36.13398255 -17.0625 32.8125 C-20.77758206 29.6126483 -23.2990414 25.9067102 -24 21 C-24.3630359 15.37294357 -24.24590017 11.81649702 -21 7 C-14.38572106 0.46227521 -9.41430349 -1.22692677 0 0 Z " fill="#FBFCFD" transform="translate(947,767)"/>
<path d="M0 0 C5.07863543 2.26362037 8.10741641 5.4850271 10.73828125 10.3515625 C12.3455054 15.17323496 12.12457268 19.05635004 10.67578125 23.9140625 C7.85829197 28.91283381 4.23478629 32.51939415 -1.26171875 34.3515625 C-7.29973167 35.05823364 -12.68420488 35.38133985 -17.82421875 31.7890625 C-21.95509824 28.10476457 -23.87364306 24.44143096 -24.5703125 18.89453125 C-24.85303512 13.18010747 -24.1672763 9.7710092 -20.26171875 5.3515625 C-14.0348141 -0.49410309 -8.46274188 -2.42627833 0 0 Z " fill="#FBFCFD" transform="translate(993.26171875,767.6484375)"/>
<path d="M0 0 C15.18 0 30.36 0 46 0 C46 2.64 46 5.28 46 8 C39.73 8 33.46 8 27 8 C27 32.75 27 57.5 27 83 C24.36 83 21.72 83 19 83 C19 58.25 19 33.5 19 8 C12.73 8 6.46 8 0 8 C0 5.36 0 2.72 0 0 Z " fill="#FDFDFE" transform="translate(961,1130)"/>
<path d="M0 0 C2.64 0 5.28 0 8 0 C8 24.75 8 49.5 8 75 C18.56 75 29.12 75 40 75 C40 77.64 40 80.28 40 83 C26.8 83 13.6 83 0 83 C0 55.61 0 28.22 0 0 Z " fill="#FDFEFE" transform="translate(1563,1130)"/>
<path d="M0 0 C3.465 -0.061875 6.93 -0.12375 10.5 -0.1875 C12.11358398 -0.22846802 12.11358398 -0.22846802 13.75976562 -0.27026367 C19.90336958 -0.32297171 24.4387212 0.33008003 30 3 C33.17186374 6.33452342 34.89577528 8.64507858 35.25 13.25 C34.92845405 18.07318932 33.68327335 21.2543832 30.3125 24.75 C23.72849913 28.30891939 16.78164841 28.26150071 9.5 28.125 C4.7975 28.063125 4.7975 28.063125 0 28 C0 18.76 0 9.52 0 0 Z " fill="#1F5BA8" transform="translate(1687,1138)"/>
<path d="M0 0 C2.97 0 5.94 0 9 0 C9 27.39 9 54.78 9 83 C6.03 83 3.06 83 0 83 C0 55.61 0 28.22 0 0 Z " fill="#F0F4F9" transform="translate(595,1130)"/>
<path d="M0 0 C2.64 0 5.28 0 8 0 C8 27.39 8 54.78 8 83 C5.36 83 2.72 83 0 83 C0 55.61 0 28.22 0 0 Z " fill="#FDFDFE" transform="translate(1747,1130)"/>
<path d="M0 0 C2.64 0 5.28 0 8 0 C8 27.39 8 54.78 8 83 C5.36 83 2.72 83 0 83 C0 55.61 0 28.22 0 0 Z " fill="#FFFFFF" transform="translate(1388,1130)"/>
<path d="M0 0 C2.64 0 5.28 0 8 0 C8 27.39 8 54.78 8 83 C5.36 83 2.72 83 0 83 C0 55.61 0 28.22 0 0 Z " fill="#FFFFFF" transform="translate(1019,1130)"/>
<path d="M0 0 C2.64 0 5.28 0 8 0 C8 27.39 8 54.78 8 83 C5.36 83 2.72 83 0 83 C0 55.61 0 28.22 0 0 Z " fill="#FFFFFF" transform="translate(885,1130)"/>
<path d="M0 0 C3.60493312 1.97251058 5.31888061 3.22398509 7.3125 6.8125 C8.02002382 10.77624137 7.68023779 13.89315554 6.1875 17.625 C3.3158609 20.97524561 0.51009711 22.52956422 -3.90234375 23.09765625 C-8.65097448 23.27938421 -11.90935362 22.94296414 -15.6875 19.8125 C-18.86689197 16.80496705 -19.6240228 15.25684039 -20.25 10.875 C-20.00805457 6.13466173 -18.0635025 4.03504784 -14.6875 0.8125 C-10.16276253 -2.50564081 -5.08136709 -1.63637245 0 0 Z " fill="#225DA9" transform="translate(412.6875,1193.1875)"/>
<path d="M0 0 C11.55 0 23.1 0 35 0 C33.73979607 3.78061179 32.70218554 6.84391112 30.94042969 10.28613281 C30.53951111 11.07425354 30.13859253 11.86237427 29.7255249 12.67437744 C29.29532043 13.50886414 28.86511597 14.34335083 28.421875 15.203125 C27.97281799 16.08095642 27.52376099 16.95878784 27.06109619 17.86322021 C26.11164127 19.71667502 25.16007817 21.5690512 24.20654297 23.42041016 C22.76340607 26.22395637 21.32848095 29.03158955 19.89453125 31.83984375 C18.96663733 33.64868971 18.03826685 35.4572913 17.109375 37.265625 C16.68726746 38.09201477 16.26515991 38.91840454 15.83026123 39.76983643 C12.78753923 45.66158125 9.46901553 51.34950991 6 57 C4.35 56.34 2.7 55.68 1 55 C5.98541282 44.8815799 11.11537546 34.83800887 16.28125 24.81082153 C17.0100463 23.39599284 17.73823716 21.98085211 18.46582031 20.56539917 C19.50396607 18.54652329 20.54458149 16.52894026 21.5859375 14.51171875 C21.90025726 13.89979675 22.21457703 13.28787476 22.53842163 12.65740967 C23.91594774 9.99559581 25.3345184 7.4982224 27 5 C18.09 5 9.18 5 0 5 C0 3.35 0 1.7 0 0 Z " fill="#F7F9FC" transform="translate(347,1164)"/>
<path d="M0 0 C3.08391078 1.54195539 3.60963682 4.06129157 5.0390625 7.15234375 C5.32478119 7.76767471 5.61049988 8.38300568 5.90487671 9.01698303 C6.50796209 10.31941761 7.10794919 11.62329062 7.70507812 12.9284668 C8.62122791 14.92926207 9.54806417 16.92483202 10.4765625 18.91992188 C15 28.71604986 15 28.71604986 15 31 C5.43 31 -4.14 31 -14 31 C-4.07972665 8.93849658 -4.07972665 8.93849658 0 0 Z " fill="#2660AB" transform="translate(1271,1147)"/>
<path d="M0 0 C3.75212276 2.01502889 5.63644095 3.45466142 8 7 C8.47364652 11.81540624 8.49199653 14.05114955 6.25 18.375 C3.65079698 21.40740352 1.77084213 22.72756275 -2.18359375 23.3359375 C-6.28583452 23.40703353 -8.43361845 23.35398847 -12 21.125 C-15.64356272 17.25371461 -15.38635747 13.85393704 -15.359375 8.70703125 C-15 6 -15 6 -12.625 2.875 C-8.45346417 -0.10466845 -5.0798166 -0.69871083 0 0 Z " fill="#225DA9" transform="translate(323,1168)"/>
<path d="M0 0 C3.96 0 7.92 0 12 0 C12 18.48 12 36.96 12 56 C10.02 56 8.04 56 6 56 C6 39.5 6 23 6 6 C3.36 6 0.72 6 -2 6 C-1.34 4.02 -0.68 2.04 0 0 Z " fill="#EDF2F8" transform="translate(268,1164)"/>
<path d="M0 0 C2.98977697 1.29779365 3.83650032 2.33723117 6 5 C6.79657719 7.86306004 6.74086753 10.12913833 6 13 C4.1875 16 4.1875 16 1 18 C-3.40335236 18.86482633 -7.89105115 19.32317347 -11.82421875 16.85546875 C-14.07340509 14.41294261 -14.96911272 12.16816409 -15.5625 8.9375 C-14.87020639 5.32218892 -13.54408967 3.61891584 -11 1 C-7.49971861 -0.75014069 -3.81921126 -0.55017114 0 0 Z " fill="#215CA9" transform="translate(411,1168)"/>
<path d="M0 0 C2.7912125 1.98322993 3.82597224 3.12986121 4.5 6.5 C3.82597224 9.87013879 2.7912125 11.01677007 0 13 C-3.17235276 13.45319325 -5.06487736 13.52990283 -7.875 11.9375 C-9.64273274 8.8930714 -9.36823916 6.4368988 -9 3 C-6.84532543 -0.71082843 -4.00794956 -0.57256422 0 0 Z " fill="#F2F5FA" transform="translate(1754,1110)"/>
<path d="M0 0 C2.7912125 1.98322993 3.82597224 3.12986121 4.5 6.5 C4 9 4 9 2.4375 11.375 C0 13 0 13 -3.625 12.9375 C-7 12 -7 12 -9 9 C-9.32502803 5.87973093 -9.51151479 3.85252465 -7.875 1.125 C-5.07553259 -0.55468045 -3.20195936 -0.45742277 0 0 Z " fill="#F3F6FA" transform="translate(602,1110)"/>
<path d="M0 0 C1.875 1.0625 1.875 1.0625 3 3 C3.63316583 8.90954774 3.63316583 8.90954774 1.875 11.9375 C-0.88980433 13.50422245 -2.88188517 13.38976435 -6 13 C-7.875 11.9375 -7.875 11.9375 -9 10 C-9.63316583 4.09045226 -9.63316583 4.09045226 -7.875 1.0625 C-5.11019567 -0.50422245 -3.11811483 -0.38976435 0 0 Z " fill="#F7F9FB" transform="translate(1395,1110)"/>
<path d="M0 0 C1.875 1.0625 1.875 1.0625 3 3 C3.63316583 8.90954774 3.63316583 8.90954774 1.875 11.9375 C-0.88980433 13.50422245 -2.88188517 13.38976435 -6 13 C-7.875 11.9375 -7.875 11.9375 -9 10 C-9.63316583 4.09045226 -9.63316583 4.09045226 -7.875 1.0625 C-5.11019567 -0.50422245 -3.11811483 -0.38976435 0 0 Z " fill="#F7F9FB" transform="translate(1026,1110)"/>
<path d="M0 0 C1.875 1.0625 1.875 1.0625 3 3 C3.63316583 8.90954774 3.63316583 8.90954774 1.875 11.9375 C-0.88980433 13.50422245 -2.88188517 13.38976435 -6 13 C-7.875 11.9375 -7.875 11.9375 -9 10 C-9.63316583 4.09045226 -9.63316583 4.09045226 -7.875 1.0625 C-5.11019567 -0.50422245 -3.11811483 -0.38976435 0 0 Z " fill="#F7F9FB" transform="translate(892,1110)"/>
</svg>
